<svg width="594" height="347" viewBox="0 0 594 347" fill="none" xmlns="http://www.w3.org/2000/svg">
<path d="M143.076 246C138.675 246 135.218 244.428 132.389 241.285C129.246 238.142 127.988 234.37 127.988 229.969V190.364H23.3173C18.288 190.364 14.5161 189.107 12.0015 185.963C9.17252 183.134 7.60088 179.677 7.28655 175.905C6.97222 172.133 7.91521 168.361 10.4298 165.218L130.817 7.42537C132.389 5.53941 134.275 3.65345 136.475 2.39614C138.675 1.13883 141.19 0.510182 144.019 0.510182C148.42 0.510182 151.877 2.08182 154.706 5.22509C157.221 8.36836 158.792 12.4546 158.792 16.8552V161.446H177.652C182.053 161.446 185.825 162.703 188.968 164.589C192.111 166.789 193.683 170.561 193.683 175.905C193.683 179.991 192.111 183.449 188.968 186.278C185.825 189.107 182.053 190.364 177.652 190.364H158.792V229.969C158.792 234.37 157.221 238.142 154.392 241.285C151.249 244.428 147.477 246 143.076 246ZM42.1769 170.247L33.6901 161.446H127.988V31.9429L137.732 44.516L42.1769 170.247ZM297.197 246C281.167 246 267.65 241.285 256.335 231.541C245.019 221.797 236.532 207.652 230.874 189.421C224.902 171.19 222.073 148.873 222.073 123.098C222.073 97.3231 224.902 75.3201 230.874 57.0891C236.532 38.8581 245.019 24.7134 256.335 14.9692C267.65 5.22509 281.167 0.195839 297.197 0.195839C312.914 0.195839 326.43 5.22509 337.745 15.2836C349.061 25.3421 357.548 39.4868 363.52 57.7178C369.178 75.9488 372.322 97.9517 372.322 123.098C372.322 148.558 369.178 170.561 363.52 188.792C357.548 207.023 349.061 221.168 337.745 231.227C326.43 241.285 312.914 246 297.197 246ZM297.197 213.31C306.627 213.31 314.8 209.538 321.086 201.68C327.373 193.822 332.088 183.134 335.231 169.304C338.374 155.788 339.946 140.386 339.946 123.098C339.946 106.124 338.374 90.7222 335.231 76.8918C332.088 63.3757 327.373 52.6886 321.086 44.516C314.8 36.6579 306.627 32.5716 297.197 32.5716C287.453 32.5716 279.595 36.6579 273.308 44.516C267.022 52.3742 262.307 63.0614 259.164 76.5774C256.02 90.4079 254.449 105.81 254.449 123.098C254.449 140.7 256.02 156.102 259.164 169.618C262.307 183.449 267.022 194.136 273.308 201.68C279.595 209.538 287.767 213.31 297.197 213.31ZM530.153 246C525.753 246 522.295 244.428 519.466 241.285C516.323 238.142 515.066 234.37 515.066 229.969V190.364H410.394C405.365 190.364 401.593 189.107 399.079 185.963C396.25 183.134 394.678 179.677 394.364 175.905C394.049 172.133 394.992 168.361 397.507 165.218L517.894 7.42537C519.466 5.53941 521.352 3.65345 523.552 2.39614C525.753 1.13883 528.267 0.510182 531.096 0.510182C535.497 0.510182 538.954 2.08182 541.783 5.22509C544.298 8.36836 545.87 12.4546 545.87 16.8552V161.446H564.729C569.13 161.446 572.902 162.703 576.045 164.589C579.188 166.789 580.76 170.561 580.76 175.905C580.76 179.991 579.188 183.449 576.045 186.278C572.902 189.107 569.13 190.364 564.729 190.364H545.87V229.969C545.87 234.37 544.298 238.142 541.469 241.285C538.326 244.428 534.554 246 530.153 246ZM429.254 170.247L420.767 161.446H515.066V31.9429L524.81 44.516L429.254 170.247Z" fill="#FFD85C"/>
<path d="M19.1413 339.425C16.8444 339.425 14.675 339 12.6758 338.149C10.6766 337.299 8.93261 336.065 7.44384 334.534C5.95507 333.002 4.80659 331.173 3.95587 329.089C3.10515 327.047 2.72232 324.793 2.72232 322.368C2.72232 319.986 3.10515 317.774 3.95587 315.733C4.80659 313.691 5.95507 311.862 7.44384 310.331C8.93261 308.799 10.6766 307.566 12.6758 306.672C14.6325 305.822 16.8018 305.354 19.1413 305.354C21.3107 305.354 23.1822 305.652 24.7561 306.205C26.3299 306.8 27.9038 307.736 29.5201 309.012C29.7328 309.182 29.903 309.395 30.0306 309.565C30.1582 309.735 30.2433 309.948 30.2858 310.118C30.3283 310.288 30.3709 310.501 30.3709 310.756C30.3709 311.309 30.1582 311.777 29.7754 312.117C29.3925 312.457 28.9246 312.67 28.4142 312.713C27.8612 312.755 27.3508 312.585 26.8404 312.16C25.777 311.266 24.671 310.586 23.5651 310.075C22.4591 309.607 20.9704 309.352 19.1413 309.352C17.4399 309.352 15.866 309.693 14.4198 310.373C12.931 311.054 11.6124 311.989 10.5065 313.181C9.40051 314.372 8.50725 315.775 7.91174 317.349C7.2737 318.923 6.97594 320.582 6.97594 322.368C6.97594 324.197 7.2737 325.899 7.91174 327.473C8.50725 329.047 9.40051 330.408 10.5065 331.599C11.6124 332.79 12.931 333.726 14.4198 334.406C15.866 335.087 17.4399 335.384 19.1413 335.384C20.5875 335.384 21.9487 335.172 23.2248 334.661C24.5009 334.151 25.777 333.47 26.968 332.577C27.4784 332.237 27.9463 332.067 28.4567 332.109C28.9672 332.152 29.3925 332.364 29.7328 332.705C30.0731 333.045 30.2433 333.555 30.2433 334.151C30.2433 334.449 30.1582 334.746 30.0731 335.002C29.9455 335.257 29.7754 335.512 29.5627 335.725C28.0314 336.958 26.3725 337.894 24.6285 338.49C22.8845 339.128 21.0554 339.425 19.1413 339.425ZM47.1448 339C46.5067 339 45.9963 338.787 45.5709 338.362C45.1456 337.937 44.9329 337.426 44.9329 336.788V305.779H49.3567V336.788C49.3567 337.426 49.144 337.937 48.7186 338.362C48.2932 338.787 47.7403 339 47.1448 339ZM35.7451 309.863C35.1496 309.863 34.6391 309.693 34.2563 309.31C33.8735 308.927 33.7033 308.416 33.7033 307.821C33.7033 307.225 33.8735 306.758 34.2563 306.375C34.6391 305.992 35.1496 305.779 35.7451 305.779H58.5019C59.0975 305.779 59.5654 305.992 59.9482 306.375C60.331 306.758 60.5437 307.225 60.5437 307.821C60.5437 308.416 60.331 308.927 59.9482 309.31C59.5654 309.693 59.0975 309.863 58.5019 309.863H35.7451ZM67.6529 339C67.0148 339 66.5044 338.787 66.079 338.362C65.6537 337.937 65.441 337.426 65.441 336.788V307.991C65.441 307.353 65.6537 306.843 66.079 306.417C66.5044 305.992 67.0148 305.779 67.6529 305.779H76.1601C78.2869 305.779 80.1585 306.247 81.8175 307.183C83.4338 308.119 84.7099 309.437 85.6457 311.096C86.5815 312.755 87.0494 314.669 87.0494 316.796C87.0494 318.88 86.5815 320.709 85.6457 322.326C84.7099 323.942 83.4338 325.218 81.8175 326.112C80.1585 327.047 78.2869 327.473 76.1601 327.473H69.8648V336.788C69.8648 337.426 69.6521 337.937 69.2267 338.362C68.8014 338.787 68.2909 339 67.6529 339ZM69.8648 323.389H76.1601C77.4362 323.389 78.5847 323.134 79.6056 322.538C80.5839 321.986 81.3496 321.22 81.9451 320.199C82.498 319.221 82.7958 318.072 82.7958 316.796C82.7958 315.435 82.498 314.244 81.9451 313.223C81.3496 312.202 80.5839 311.351 79.6056 310.756C78.5847 310.16 77.4362 309.863 76.1601 309.863H69.8648V323.389ZM89.3367 339C88.5285 339 87.933 338.66 87.5077 337.979C87.0823 337.299 87.0398 336.575 87.3801 335.81L99.3327 307.268C99.7581 306.29 100.439 305.779 101.417 305.779C102.438 305.779 103.118 306.29 103.501 307.268L115.497 335.895C115.794 336.703 115.752 337.426 115.326 338.064C114.901 338.702 114.306 339 113.497 339C113.072 339 112.647 338.915 112.264 338.66C111.881 338.404 111.626 338.064 111.456 337.639L100.907 311.437H102.098L91.3785 337.639C91.1658 338.107 90.868 338.447 90.4852 338.66C90.1024 338.915 89.7196 339 89.3367 339ZM91.5912 331.684L93.2926 328.026H109.967L111.668 331.684H91.5912ZM122.776 339C122.137 339 121.627 338.787 121.202 338.362C120.776 337.937 120.564 337.426 120.564 336.788V307.991C120.564 307.353 120.776 306.843 121.202 306.417C121.627 305.992 122.137 305.779 122.776 305.779C123.414 305.779 123.924 305.992 124.349 306.417C124.775 306.843 124.987 307.353 124.987 307.991V320.199H144.724V307.991C144.724 307.353 144.937 306.843 145.362 306.417C145.788 305.992 146.298 305.779 146.936 305.779C147.574 305.779 148.085 305.992 148.51 306.417C148.893 306.843 149.105 307.353 149.105 307.991V336.788C149.105 337.426 148.893 337.937 148.51 338.362C148.085 338.787 147.574 339 146.936 339C146.298 339 145.788 338.787 145.362 338.362C144.937 337.937 144.724 337.426 144.724 336.788V324.112H124.987V336.788C124.987 337.426 124.775 337.937 124.349 338.362C123.924 338.787 123.414 339 122.776 339ZM159.914 339C159.276 339 158.723 338.787 158.297 338.362C157.829 337.937 157.617 337.426 157.617 336.788V307.991C157.617 307.353 157.829 306.843 158.297 306.417C158.723 305.992 159.276 305.779 159.914 305.779C160.552 305.779 161.062 305.992 161.445 306.417C161.828 306.843 162.04 307.353 162.04 307.991V332.109L182.458 306.587C182.883 306.077 183.479 305.779 184.159 305.779C184.797 305.779 185.308 305.992 185.733 306.417C186.159 306.843 186.371 307.353 186.371 307.991V336.788C186.371 337.426 186.159 337.937 185.733 338.362C185.308 338.787 184.797 339 184.159 339C183.521 339 183.011 338.787 182.585 338.362C182.16 337.937 181.947 337.426 181.947 336.788V312.713L161.615 338.234C161.402 338.49 161.147 338.66 160.849 338.787C160.509 338.957 160.211 339 159.914 339ZM224.142 346.571C223.504 346.571 222.994 346.359 222.569 345.933C222.143 345.508 221.93 344.998 221.93 344.36V339H197.089C196.451 339 195.941 338.787 195.515 338.362C195.09 337.937 194.877 337.426 194.877 336.788V307.991C194.877 307.353 195.09 306.843 195.515 306.417C195.941 305.992 196.451 305.779 197.089 305.779C197.727 305.779 198.238 305.992 198.663 306.417C199.089 306.843 199.301 307.353 199.301 307.991V335.087H217.507V307.991C217.507 307.353 217.719 306.843 218.145 306.417C218.57 305.992 219.081 305.779 219.719 305.779C220.357 305.779 220.867 305.992 221.292 306.417C221.718 306.843 221.93 307.353 221.93 307.991V335.087H224.142C224.78 335.087 225.291 335.299 225.716 335.725C226.142 336.15 226.354 336.661 226.354 337.299V344.36C226.354 344.998 226.142 345.508 225.716 345.933C225.291 346.359 224.78 346.571 224.142 346.571ZM230.778 339C229.97 339 229.374 338.66 228.949 337.979C228.524 337.299 228.481 336.575 228.821 335.81L240.774 307.268C241.199 306.29 241.88 305.779 242.858 305.779C243.879 305.779 244.56 306.29 244.943 307.268L256.938 335.895C257.236 336.703 257.193 337.426 256.768 338.064C256.342 338.702 255.747 339 254.939 339C254.513 339 254.088 338.915 253.705 338.66C253.322 338.404 253.067 338.064 252.897 337.639L242.348 311.437H243.539L232.82 337.639C232.607 338.107 232.309 338.447 231.926 338.66C231.544 338.915 231.161 339 230.778 339ZM233.032 331.684L234.734 328.026H251.408L253.11 331.684H233.032ZM276.679 339C276.041 339 275.53 338.787 275.105 338.362C274.679 337.937 274.467 337.426 274.467 336.788V307.991C274.467 307.353 274.679 306.843 275.105 306.417C275.53 305.992 276.041 305.779 276.679 305.779C277.317 305.779 277.827 305.992 278.252 306.417C278.678 306.843 278.89 307.353 278.89 307.991V320.199H298.627V307.991C298.627 307.353 298.84 306.843 299.265 306.417C299.691 305.992 300.201 305.779 300.839 305.779C301.477 305.779 301.988 305.992 302.413 306.417C302.796 306.843 303.009 307.353 303.009 307.991V336.788C303.009 337.426 302.796 337.937 302.413 338.362C301.988 338.787 301.477 339 300.839 339C300.201 339 299.691 338.787 299.265 338.362C298.84 337.937 298.627 337.426 298.627 336.788V324.112H278.89V336.788C278.89 337.426 278.678 337.937 278.252 338.362C277.827 338.787 277.317 339 276.679 339ZM313.732 339C313.094 339 312.583 338.787 312.158 338.362C311.732 337.937 311.52 337.426 311.52 336.788V307.991C311.52 307.353 311.732 306.843 312.158 306.417C312.583 305.992 313.094 305.779 313.732 305.779H332.958C333.596 305.779 334.107 305.992 334.532 306.375C334.915 306.758 335.127 307.268 335.127 307.863C335.127 308.459 334.915 308.969 334.532 309.31C334.107 309.693 333.596 309.863 332.958 309.863H315.944V320.199H328.151C328.789 320.199 329.3 320.412 329.725 320.794C330.108 321.177 330.321 321.645 330.321 322.241C330.321 322.836 330.108 323.347 329.725 323.729C329.3 324.112 328.789 324.282 328.151 324.282H315.944V334.917H332.958C333.596 334.917 334.107 335.129 334.532 335.469C334.915 335.852 335.127 336.32 335.127 336.916C335.127 337.554 334.915 338.064 334.532 338.447C334.107 338.83 333.596 339 332.958 339H313.732ZM355.977 339C355.339 339 354.829 338.787 354.403 338.362C353.978 337.937 353.765 337.426 353.765 336.788V307.991C353.765 307.353 353.978 306.843 354.403 306.417C354.829 305.992 355.339 305.779 355.977 305.779C356.615 305.779 357.126 305.992 357.551 306.417C357.976 306.843 358.189 307.353 358.189 307.991V320.199H377.926V307.991C377.926 307.353 378.139 306.843 378.564 306.417C378.989 305.992 379.5 305.779 380.138 305.779C380.776 305.779 381.286 305.992 381.712 306.417C382.094 306.843 382.307 307.353 382.307 307.991V336.788C382.307 337.426 382.094 337.937 381.712 338.362C381.286 338.787 380.776 339 380.138 339C379.5 339 378.989 338.787 378.564 338.362C378.139 337.937 377.926 337.426 377.926 336.788V324.112H358.189V336.788C358.189 337.426 357.976 337.937 357.551 338.362C357.126 338.787 356.615 339 355.977 339ZM389.5 339C388.691 339 388.096 338.66 387.671 337.979C387.245 337.299 387.203 336.575 387.543 335.81L399.496 307.268C399.921 306.29 400.602 305.779 401.58 305.779C402.601 305.779 403.281 306.29 403.664 307.268L415.659 335.895C415.957 336.703 415.915 337.426 415.489 338.064C415.064 338.702 414.468 339 413.66 339C413.235 339 412.81 338.915 412.427 338.66C412.044 338.404 411.789 338.064 411.619 337.639L401.07 311.437H402.261L391.541 337.639C391.329 338.107 391.031 338.447 390.648 338.66C390.265 338.915 389.882 339 389.5 339ZM391.754 331.684L393.456 328.026H410.13L411.831 331.684H391.754ZM423.024 339C422.385 339 421.833 338.787 421.407 338.362C420.939 337.937 420.727 337.426 420.727 336.788V307.991C420.727 307.353 420.939 306.843 421.407 306.417C421.833 305.992 422.385 305.779 423.024 305.779C423.662 305.779 424.172 305.992 424.555 306.417C424.938 306.843 425.15 307.353 425.15 307.991V332.109L445.568 306.587C445.993 306.077 446.589 305.779 447.269 305.779C447.907 305.779 448.418 305.992 448.843 306.417C449.268 306.843 449.481 307.353 449.481 307.991V336.788C449.481 337.426 449.268 337.937 448.843 338.362C448.418 338.787 447.907 339 447.269 339C446.631 339 446.121 338.787 445.695 338.362C445.27 337.937 445.057 337.426 445.057 336.788V312.713L424.725 338.234C424.512 338.49 424.257 338.66 423.959 338.787C423.619 338.957 423.321 339 423.024 339ZM435.146 302.717C433.7 302.717 432.382 302.504 431.233 301.993C430.042 301.483 429.149 300.802 428.468 299.952C427.788 299.101 427.447 298.123 427.447 297.017C427.447 296.421 427.617 295.953 428 295.528C428.341 295.145 428.808 294.932 429.361 294.932C429.914 294.932 430.382 295.145 430.723 295.528C431.063 295.953 431.276 296.421 431.276 297.017C431.276 297.74 431.616 298.335 432.382 298.846C433.105 299.356 434.04 299.569 435.146 299.569C436.252 299.569 437.146 299.356 437.911 298.846C438.634 298.335 439.017 297.74 439.017 297.017C439.017 296.421 439.187 295.953 439.57 295.528C439.91 295.145 440.378 294.932 440.931 294.932C441.484 294.932 441.952 295.145 442.292 295.528C442.633 295.953 442.845 296.421 442.845 297.017C442.845 298.123 442.505 299.101 441.825 299.952C441.144 300.802 440.208 301.483 439.06 301.993C437.911 302.504 436.593 302.717 435.146 302.717ZM461.773 337.639L457.987 335.81L469.94 307.268C470.365 306.29 471.046 305.779 472.024 305.779C473.045 305.779 473.726 306.29 474.109 307.268L486.104 335.895L482.573 337.639L471.769 311.437H472.365L461.773 337.639ZM457.009 346.571C456.371 346.571 455.861 346.359 455.435 345.933C455.01 345.508 454.797 344.998 454.797 344.36V337.299C454.797 336.661 455.01 336.15 455.435 335.725C455.861 335.299 456.371 335.087 457.009 335.087H486.955C487.593 335.087 488.103 335.299 488.528 335.725C488.954 336.15 489.166 336.661 489.166 337.299V344.36C489.166 344.998 488.954 345.508 488.528 345.933C488.103 346.359 487.593 346.571 486.955 346.571C486.316 346.571 485.806 346.359 485.381 345.933C484.955 345.508 484.743 344.998 484.743 344.36V339H459.221V344.36C459.221 344.998 459.008 345.508 458.583 345.933C458.157 346.359 457.647 346.571 457.009 346.571ZM496.712 339C496.074 339 495.564 338.787 495.138 338.362C494.713 337.937 494.5 337.426 494.5 336.788V307.991C494.5 307.353 494.713 306.843 495.138 306.417C495.564 305.992 496.074 305.779 496.712 305.779H515.939C516.577 305.779 517.087 305.992 517.512 306.375C517.895 306.758 518.108 307.268 518.108 307.863C518.108 308.459 517.895 308.969 517.512 309.31C517.087 309.693 516.577 309.863 515.939 309.863H498.924V320.199H511.132C511.77 320.199 512.281 320.412 512.706 320.794C513.089 321.177 513.301 321.645 513.301 322.241C513.301 322.836 513.089 323.347 512.706 323.729C512.281 324.112 511.77 324.282 511.132 324.282H498.924V334.917H515.939C516.577 334.917 517.087 335.129 517.512 335.469C517.895 335.852 518.108 336.32 518.108 336.916C518.108 337.554 517.895 338.064 517.512 338.447C517.087 338.83 516.577 339 515.939 339H496.712ZM526.496 339C525.858 339 525.347 338.787 524.922 338.362C524.497 337.937 524.284 337.426 524.284 336.788V307.991C524.284 307.353 524.497 306.843 524.922 306.417C525.347 305.992 525.858 305.779 526.496 305.779C527.134 305.779 527.644 305.992 528.07 306.417C528.495 306.843 528.708 307.353 528.708 307.991V320.199H548.445V307.991C548.445 307.353 548.657 306.843 549.083 306.417C549.508 305.992 550.018 305.779 550.656 305.779C551.295 305.779 551.805 305.992 552.23 306.417C552.613 306.843 552.826 307.353 552.826 307.991V336.788C552.826 337.426 552.613 337.937 552.23 338.362C551.805 338.787 551.295 339 550.656 339C550.018 339 549.508 338.787 549.083 338.362C548.657 337.937 548.445 337.426 548.445 336.788V324.112H528.708V336.788C528.708 337.426 528.495 337.937 528.07 338.362C527.644 338.787 527.134 339 526.496 339ZM560.018 339C559.21 339 558.615 338.66 558.189 337.979C557.764 337.299 557.722 336.575 558.062 335.81L570.015 307.268C570.44 306.29 571.12 305.779 572.099 305.779C573.12 305.779 573.8 306.29 574.183 307.268L586.178 335.895C586.476 336.703 586.434 337.426 586.008 338.064C585.583 338.702 584.987 339 584.179 339C583.754 339 583.328 338.915 582.946 338.66C582.563 338.404 582.307 338.064 582.137 337.639L571.588 311.437H572.779L562.06 337.639C561.848 338.107 561.55 338.447 561.167 338.66C560.784 338.915 560.401 339 560.018 339ZM562.273 331.684L563.974 328.026H580.649L582.35 331.684H562.273Z" fill="#006569"/>
</svg>
