<svg width="160" height="67" viewBox="0 0 160 67" fill="none" xmlns="http://www.w3.org/2000/svg">
<ellipse cx="33.5134" cy="33.2521" rx="33.5134" ry="33.2521" fill="#F3F07D"/>
<ellipse cx="33.5133" cy="33.252" rx="28.6739" ry="28.433" fill="#F6D671"/>
<path d="M22.9197 22.9519C22.6872 23.1898 22.6916 23.5712 22.9296 23.8037C23.1676 24.0362 23.5489 24.0318 23.7815 23.7938L22.9197 22.9519ZM27.7061 18.9151L28.244 18.6439C28.1564 18.4702 27.9904 18.3495 27.7981 18.3198C27.6059 18.2901 27.4112 18.355 27.2753 18.4942L27.7061 18.9151ZM31.6987 19.879L32.1558 20.2713L32.1768 20.2468L32.195 20.2203L31.6987 19.879ZM37.627 15.5417L38.2289 15.5155C38.2212 15.34 38.1373 15.1766 37.9992 15.0681C37.8611 14.9596 37.6826 14.9167 37.5102 14.9508L37.627 15.5417ZM42.8295 19.5175L43.4201 19.3989C43.38 19.1991 43.2415 19.0332 43.0522 18.9578C42.8628 18.8825 42.6482 18.908 42.4818 19.0256L42.8295 19.5175ZM43.3278 25.0577C43.3933 25.3839 43.7108 25.5952 44.037 25.5297C44.3632 25.4642 44.5745 25.1466 44.509 24.8205L43.3278 25.0577ZM23.7815 23.7938L28.137 19.3361L27.2753 18.4942L22.9197 22.9519L23.7815 23.7938ZM27.1683 19.1864C27.5088 19.8616 27.8349 20.4272 28.1689 20.8531C28.4985 21.2733 28.886 21.6228 29.3687 21.7585C29.8796 21.902 30.3703 21.7727 30.819 21.4995C31.2538 21.2348 31.693 20.8106 32.1558 20.2713L31.2415 19.4867C30.8064 19.9937 30.4652 20.3044 30.1925 20.4705C29.9337 20.628 29.7898 20.6253 29.6946 20.5986C29.5712 20.5639 29.381 20.4462 29.1169 20.1095C28.8573 19.7786 28.5737 19.2977 28.244 18.6439L27.1683 19.1864ZM32.195 20.2203C33.1193 18.8762 33.9054 17.9831 34.7485 17.3627C35.5818 16.7495 36.5054 16.3775 37.7438 16.1327L37.5102 14.9508C36.1438 15.2209 35.0437 15.6496 34.0345 16.3923C33.035 17.1278 32.1594 18.1459 31.2023 19.5377L32.195 20.2203ZM37.0252 15.568C37.0863 16.9672 37.2094 18.1204 37.4296 19.0173C37.6458 19.8985 37.979 20.6325 38.5394 21.0747C39.1403 21.549 39.8712 21.5913 40.6341 21.373C41.3776 21.1602 42.2229 20.6839 43.1771 20.0095L42.4818 19.0256C41.5608 19.6765 40.8484 20.0585 40.3026 20.2147C39.7763 20.3653 39.4863 20.2872 39.2857 20.129C39.0446 19.9387 38.7955 19.5281 38.5996 18.7302C38.4076 17.9479 38.2888 16.8873 38.2289 15.5155L37.0252 15.568ZM42.2389 19.6362L43.3278 25.0577L44.509 24.8205L43.4201 19.3989L42.2389 19.6362Z" fill="white"/>
<path d="M42.5874 40.9629L33.3924 48.1916L23.9555 40.9629C12.8245 30.4811 25.7702 19.0357 33.3924 28.5536C40.6517 19.7586 53.2343 30.7222 42.5874 40.9629Z" stroke="white" stroke-width="1.20479"/>
<path d="M13.8651 41.561C12.5808 41.561 11.4048 41.3908 10.3372 41.0504C9.26956 40.71 8.34118 40.2304 7.55206 39.6114C6.7784 38.977 6.17495 38.2343 5.74171 37.3833C5.32394 36.5323 5.11505 35.5962 5.11505 34.575C5.11505 33.5537 5.32394 32.6254 5.74171 31.7898C6.17495 30.9388 6.7784 30.2038 7.55206 29.5849C8.34118 28.9505 9.26956 28.4631 10.3372 28.1227C11.4048 27.7823 12.5808 27.6121 13.8651 27.6121C15.1493 27.6121 16.3253 27.7823 17.3929 28.1227C18.4606 28.4631 19.3812 28.9505 20.1548 29.5849C20.944 30.2038 21.5474 30.9388 21.9652 31.7898C22.3984 32.6254 22.6151 33.5537 22.6151 34.575C22.6151 35.5962 22.3984 36.5323 21.9652 37.3833C21.5474 38.2343 20.944 38.977 20.1548 39.6114C19.3812 40.2304 18.4606 40.71 17.3929 41.0504C16.3253 41.3908 15.1493 41.561 13.8651 41.561ZM13.8651 39.6114C15.1184 39.6114 16.2247 39.4026 17.184 38.9848C18.1588 38.567 18.917 37.979 19.4586 37.2209C20.0156 36.4627 20.2941 35.5807 20.2941 34.575C20.2941 33.5692 20.0156 32.695 19.4586 31.9523C18.917 31.1941 18.1588 30.6061 17.184 30.1884C16.2247 29.7706 15.1184 29.5617 13.8651 29.5617C12.6117 29.5617 11.4977 29.7706 10.5229 30.1884C9.56355 30.6061 8.80537 31.1941 8.24834 31.9523C7.70679 32.695 7.43601 33.5692 7.43601 34.575C7.43601 35.5807 7.70679 36.4627 8.24834 37.2209C8.80537 37.979 9.56355 38.567 10.5229 38.9848C11.4977 39.4026 12.6117 39.6114 13.8651 39.6114ZM13.9115 43.6499C13.5711 43.6499 13.2848 43.5339 13.0527 43.3018C12.8206 43.0697 12.7046 42.7834 12.7046 42.443V41.1201L12.8206 40.1453V29.0975L12.7046 28.378V26.7301C12.7046 26.3743 12.8206 26.088 13.0527 25.8714C13.2848 25.6393 13.5711 25.5232 13.9115 25.5232C14.2674 25.5232 14.5536 25.6393 14.7702 25.8714C15.0023 26.088 15.1184 26.3743 15.1184 26.7301V28.4012L15.0023 29.0975V40.1453L15.1184 40.9344V42.443C15.1184 42.7834 15.0023 43.0697 14.7702 43.3018C14.5536 43.5339 14.2674 43.6499 13.9115 43.6499ZM27.1841 43.6499C26.8437 43.6499 26.5497 43.5339 26.3021 43.3018C26.0545 43.0697 25.9308 42.7834 25.9308 42.443V26.7301C25.9308 26.3743 26.0545 26.088 26.3021 25.8714C26.5497 25.6393 26.8437 25.5232 27.1841 25.5232C27.54 25.5232 27.8185 25.6393 28.0196 25.8714C28.2362 26.088 28.3446 26.3743 28.3446 26.7301V39.89L39.4851 25.9642C39.7327 25.6702 40.0422 25.5232 40.4135 25.5232C40.7694 25.5232 41.0557 25.6393 41.2723 25.8714C41.5044 26.088 41.6204 26.3743 41.6204 26.7301V42.443C41.6204 42.7834 41.5044 43.0697 41.2723 43.3018C41.0557 43.5339 40.7694 43.6499 40.4135 43.6499C40.0731 43.6499 39.7869 43.5339 39.5548 43.3018C39.3227 43.0697 39.2066 42.7834 39.2066 42.443V29.3064L28.1125 43.2321C28.0042 43.3559 27.8649 43.4565 27.6947 43.5339C27.5245 43.6112 27.3543 43.6499 27.1841 43.6499ZM47.0045 43.6499C46.6641 43.6499 46.3778 43.5339 46.1457 43.3018C45.9137 43.0697 45.7976 42.7834 45.7976 42.443V26.7301C45.7976 26.3743 45.9137 26.088 46.1457 25.8714C46.3778 25.6393 46.6641 25.5232 47.0045 25.5232C47.3604 25.5232 47.6466 25.6393 47.8633 25.8714C48.0954 26.088 48.2114 26.3743 48.2114 26.7301V33.3913H58.9806V26.7301C58.9806 26.3743 59.0967 26.088 59.3288 25.8714C59.5609 25.6393 59.8471 25.5232 60.1875 25.5232C60.5434 25.5232 60.8297 25.6393 61.0463 25.8714C61.2629 26.088 61.3712 26.3743 61.3712 26.7301V42.443C61.3712 42.7834 61.2629 43.0697 61.0463 43.3018C60.8297 43.5339 60.5434 43.6499 60.1875 43.6499C59.8471 43.6499 59.5609 43.5339 59.3288 43.3018C59.0967 43.0697 58.9806 42.7834 58.9806 42.443V35.5266H48.2114V42.443C48.2114 42.7834 48.0954 43.0697 47.8633 43.3018C47.6466 43.5339 47.3604 43.6499 47.0045 43.6499Z" fill="#006569"/>
<path d="M82.2647 43.4879C80.9007 43.4879 79.621 43.2354 78.4254 42.7302C77.2467 42.2082 76.2111 41.4925 75.3186 40.5832C74.443 39.6571 73.7526 38.5794 73.2475 37.3502C72.7591 36.1209 72.515 34.7907 72.515 33.3594C72.515 31.9449 72.7591 30.6315 73.2475 29.4191C73.7526 28.1898 74.443 27.1206 75.3186 26.2113C76.2111 25.2851 77.2467 24.5611 78.4254 24.0391C79.6041 23.517 80.8839 23.256 82.2647 23.256C83.5613 23.256 84.6726 23.4244 85.5988 23.7612C86.5417 24.098 87.4847 24.6537 88.4277 25.4283C88.5624 25.5293 88.6634 25.6387 88.7308 25.7566C88.815 25.8577 88.8655 25.9671 88.8823 26.085C88.916 26.186 88.9329 26.3123 88.9329 26.4638C88.9329 26.7838 88.815 27.0532 88.5792 27.2721C88.3603 27.4742 88.0909 27.5921 87.771 27.6257C87.451 27.6426 87.1395 27.5331 86.8364 27.2974C86.2134 26.7585 85.5651 26.346 84.8915 26.0597C84.2348 25.7735 83.3592 25.6303 82.2647 25.6303C81.2712 25.6303 80.3366 25.8324 79.461 26.2365C78.5854 26.6407 77.8108 27.1963 77.1372 27.9036C76.4805 28.6108 75.9669 29.4359 75.5965 30.3789C75.226 31.305 75.0408 32.2985 75.0408 33.3594C75.0408 34.437 75.226 35.4474 75.5965 36.3904C75.9669 37.3165 76.4805 38.1332 77.1372 38.8404C77.8108 39.5476 78.5854 40.1033 79.461 40.5075C80.3366 40.8948 81.2712 41.0884 82.2647 41.0884C83.1234 41.0884 83.9317 40.9453 84.6895 40.659C85.464 40.3559 86.205 39.9434 86.9122 39.4214C87.2153 39.2024 87.51 39.1098 87.7962 39.1435C88.0993 39.1603 88.3519 39.2782 88.554 39.4971C88.756 39.6992 88.8571 39.9855 88.8571 40.3559C88.8571 40.5243 88.8234 40.6927 88.756 40.8611C88.6887 41.0126 88.5877 41.1558 88.4529 41.2905C87.5436 42.0145 86.567 42.5618 85.523 42.9323C84.4958 43.3027 83.4097 43.4879 82.2647 43.4879ZM98.2861 43.3364C96.8885 43.3364 95.6424 43.0417 94.5479 42.4523C93.4702 41.8461 92.6198 41.021 91.9968 39.977C91.3906 38.9162 91.0875 37.7038 91.0875 36.3398C91.0875 34.9591 91.3738 33.7467 91.9463 32.7026C92.5356 31.6418 93.3439 30.8167 94.3711 30.2273C95.3983 29.6211 96.577 29.318 97.9072 29.318C99.2207 29.318 100.349 29.6127 101.292 30.2021C102.235 30.7746 102.95 31.5744 103.439 32.6016C103.944 33.6119 104.197 34.7822 104.197 36.1125C104.197 36.4325 104.087 36.7019 103.868 36.9208C103.649 37.1228 103.371 37.2239 103.035 37.2239H92.8556V35.2032H102.959L101.923 35.9104C101.906 35.0685 101.738 34.3192 101.418 33.6625C101.098 32.9889 100.644 32.4585 100.054 32.0712C99.4648 31.6839 98.7492 31.4902 97.9072 31.4902C96.9474 31.4902 96.1223 31.7007 95.4319 32.1217C94.7584 32.5427 94.2448 33.1236 93.8912 33.8645C93.5376 34.5886 93.3607 35.4137 93.3607 36.3398C93.3607 37.266 93.5712 38.0911 93.9922 38.8152C94.4132 39.5392 94.9941 40.1117 95.735 40.5327C96.4759 40.9537 97.3263 41.1642 98.2861 41.1642C98.8081 41.1642 99.3385 41.0716 99.8774 40.8863C100.433 40.6843 100.879 40.4569 101.216 40.2044C101.469 40.0191 101.738 39.9265 102.024 39.9265C102.327 39.9097 102.588 39.9939 102.807 40.1791C103.094 40.4317 103.245 40.7095 103.262 41.0126C103.279 41.3157 103.144 41.5767 102.858 41.7956C102.285 42.2503 101.57 42.6207 100.711 42.907C99.869 43.1933 99.0607 43.3364 98.2861 43.3364ZM119.152 43.2606C118.781 43.2606 118.47 43.1427 118.217 42.907C117.982 42.6544 117.864 42.3429 117.864 41.9724V35.7589C117.864 34.7991 117.687 34.0161 117.333 33.4099C116.98 32.8037 116.5 32.3574 115.894 32.0712C115.304 31.7681 114.622 31.6165 113.848 31.6165C113.14 31.6165 112.5 31.7597 111.928 32.0459C111.355 32.3322 110.901 32.7195 110.564 33.2078C110.227 33.6793 110.059 34.2266 110.059 34.8496H108.468C108.468 33.7888 108.72 32.8458 109.225 32.0207C109.747 31.1787 110.455 30.5136 111.347 30.0253C112.239 29.5369 113.241 29.2928 114.353 29.2928C115.515 29.2928 116.55 29.5454 117.46 30.0505C118.386 30.5389 119.11 31.2629 119.632 32.2227C120.171 33.1826 120.44 34.3613 120.44 35.7589V41.9724C120.44 42.3429 120.314 42.6544 120.061 42.907C119.825 43.1427 119.522 43.2606 119.152 43.2606ZM108.771 43.2606C108.4 43.2606 108.089 43.1427 107.836 42.907C107.6 42.6544 107.482 42.3429 107.482 41.9724V30.7072C107.482 30.3199 107.6 30.0084 107.836 29.7727C108.089 29.5369 108.4 29.4191 108.771 29.4191C109.158 29.4191 109.469 29.5369 109.705 29.7727C109.941 30.0084 110.059 30.3199 110.059 30.7072V41.9724C110.059 42.3429 109.941 42.6544 109.705 42.907C109.469 43.1427 109.158 43.2606 108.771 43.2606ZM129.726 43.2354C128.884 43.2354 128.126 43.0249 127.453 42.6039C126.779 42.1661 126.249 41.5767 125.861 40.8358C125.474 40.0949 125.281 39.2614 125.281 38.3352V26.287C125.281 25.9166 125.398 25.6135 125.634 25.3777C125.87 25.142 126.173 25.0241 126.543 25.0241C126.914 25.0241 127.217 25.142 127.453 25.3777C127.688 25.6135 127.806 25.9166 127.806 26.287V38.3352C127.806 39.0088 127.992 39.5729 128.362 40.0275C128.732 40.4822 129.187 40.7095 129.726 40.7095H130.585C130.888 40.7095 131.14 40.8274 131.343 41.0631C131.561 41.2989 131.671 41.602 131.671 41.9724C131.671 42.3429 131.528 42.646 131.241 42.8817C130.972 43.1175 130.618 43.2354 130.181 43.2354H129.726ZM124.119 32.0964C123.765 32.0964 123.479 31.9954 123.26 31.7933C123.041 31.5913 122.931 31.3387 122.931 31.0356C122.931 30.6988 123.041 30.4294 123.26 30.2273C123.479 30.0253 123.765 29.9242 124.119 29.9242H129.953C130.307 29.9242 130.593 30.0253 130.812 30.2273C131.031 30.4294 131.14 30.6988 131.14 31.0356C131.14 31.3387 131.031 31.5913 130.812 31.7933C130.593 31.9954 130.307 32.0964 129.953 32.0964H124.119ZM136.075 34.597C136.075 33.5867 136.319 32.6858 136.808 31.8944C137.313 31.0861 137.986 30.4462 138.828 29.9748C139.67 29.5033 140.596 29.2675 141.607 29.2675C142.617 29.2675 143.366 29.4359 143.855 29.7727C144.36 30.0926 144.553 30.4799 144.436 30.9346C144.385 31.1703 144.284 31.3555 144.132 31.4902C143.998 31.6081 143.838 31.6839 143.653 31.7176C143.467 31.7513 143.265 31.7428 143.046 31.6923C141.969 31.4734 141 31.4566 140.142 31.6418C139.283 31.827 138.601 32.1722 138.096 32.6774C137.607 33.1826 137.363 33.8224 137.363 34.597H136.075ZM136.1 43.2354C135.696 43.2354 135.385 43.1343 135.166 42.9323C134.947 42.7133 134.837 42.3934 134.837 41.9724V30.682C134.837 30.2779 134.947 29.9663 135.166 29.7474C135.385 29.5285 135.696 29.4191 136.1 29.4191C136.521 29.4191 136.833 29.5285 137.035 29.7474C137.254 29.9495 137.363 30.261 137.363 30.682V41.9724C137.363 42.3766 137.254 42.6881 137.035 42.907C136.833 43.1259 136.521 43.2354 136.1 43.2354ZM152.601 43.3364C151.204 43.3364 149.958 43.0417 148.863 42.4523C147.785 41.8461 146.935 41.021 146.312 39.977C145.706 38.9162 145.403 37.7038 145.403 36.3398C145.403 34.9591 145.689 33.7467 146.261 32.7026C146.851 31.6418 147.659 30.8167 148.686 30.2273C149.713 29.6211 150.892 29.318 152.222 29.318C153.536 29.318 154.664 29.6127 155.607 30.2021C156.55 30.7746 157.266 31.5744 157.754 32.6016C158.259 33.6119 158.512 34.7822 158.512 36.1125C158.512 36.4325 158.402 36.7019 158.183 36.9208C157.964 37.1228 157.687 37.2239 157.35 37.2239H147.171V35.2032H157.274L156.238 35.9104C156.222 35.0685 156.053 34.3192 155.733 33.6625C155.413 32.9889 154.959 32.4585 154.369 32.0712C153.78 31.6839 153.064 31.4902 152.222 31.4902C151.263 31.4902 150.438 31.7007 149.747 32.1217C149.074 32.5427 148.56 33.1236 148.206 33.8645C147.853 34.5886 147.676 35.4137 147.676 36.3398C147.676 37.266 147.886 38.0911 148.307 38.8152C148.728 39.5392 149.309 40.1117 150.05 40.5327C150.791 40.9537 151.641 41.1642 152.601 41.1642C153.123 41.1642 153.654 41.0716 154.193 40.8863C154.748 40.6843 155.194 40.4569 155.531 40.2044C155.784 40.0191 156.053 39.9265 156.34 39.9265C156.643 39.9097 156.904 39.9939 157.123 40.1791C157.409 40.4317 157.56 40.7095 157.577 41.0126C157.594 41.3157 157.459 41.5767 157.173 41.7956C156.601 42.2503 155.885 42.6207 155.026 42.907C154.184 43.1933 153.376 43.3364 152.601 43.3364Z" fill="white"/>
</svg>
