<svg width="48" height="48" viewBox="0 0 48 48" fill="none" xmlns="http://www.w3.org/2000/svg">
<path d="M24 0C10.7412 0 0 10.7427 0 24C0 37.2573 10.7427 48 24 48C37.2588 48 48 37.2573 48 24C48 10.7427 37.2573 0 24 0ZM35.7879 16.4423L31.8488 35.0044C31.5577 36.3205 30.7742 36.6395 29.681 36.0201L23.681 31.5979L20.7871 34.385C20.4681 34.704 20.1972 34.975 19.5778 34.975L20.0036 28.8681L31.1226 18.8222C31.6072 18.3964 31.0157 18.1548 30.3763 18.5806L16.6343 27.2315L10.7117 25.3827C9.42503 24.977 9.39561 24.096 10.9827 23.4766L34.1218 14.5533C35.1964 14.1662 36.1347 14.815 35.7863 16.4408L35.7879 16.4423Z" fill="white"/>
</svg>
